<?xml version="1.0" encoding="UTF-8" standalone="no"?>
<!DOCTYPE svg PUBLIC "-//W3C//DTD SVG 1.1//EN"
 "http://www.w3.org/Graphics/SVG/1.1/DTD/svg11.dtd">
<!-- Generated by graphviz version 2.44.0 (0)
 -->
<!-- Pages: 1 -->
<svg width="884pt" height="234pt"
 viewBox="0.00 0.00 883.59 234.00" xmlns="http://www.w3.org/2000/svg" xmlns:xlink="http://www.w3.org/1999/xlink">
<g id="graph0" class="graph" transform="scale(1 1) rotate(0) translate(4 230)">
<polygon fill="transparent" stroke="transparent" points="-4,4 -4,-230 879.59,-230 879.59,4 -4,4"/>
<!-- start -->
<g id="node1" class="node">
<title>start</title>
<ellipse fill="none" stroke="#fdae6b" cx="31.85" cy="-137" rx="31.7" ry="18"/>
<text text-anchor="middle" x="31.85" y="-133.3" font-family="Times-Roman" font-size="14.00" fill="#fee6ce">start</text>
</g>
<!-- qs -->
<g id="node2" class="node">
<title>qs</title>
<ellipse fill="none" stroke="#fdae6b" cx="216.69" cy="-137" rx="27" ry="18"/>
<text text-anchor="middle" x="216.69" y="-133.3" font-family="Times-Roman" font-size="14.00" fill="#fee6ce">qs</text>
</g>
<!-- start&#45;&#45;qs -->
<g id="edge1" class="edge">
<title>start&#45;&#45;qs</title>
<path fill="none" stroke="#fdae6b" d="M63.86,-137C99.22,-137 156.39,-137 189.57,-137"/>
</g>
<!-- lm -->
<g id="node4" class="node">
<title>lm</title>
<ellipse fill="none" stroke="#fdae6b" cx="396.69" cy="-198" rx="27" ry="18"/>
<text text-anchor="middle" x="396.69" y="-194.3" font-family="Times-Roman" font-size="14.00" fill="#fee6ce">lm</text>
</g>
<!-- start&#45;&#45;lm -->
<g id="edge3" class="edge">
<title>start&#45;&#45;lm</title>
<path fill="none" stroke="#fdae6b" d="M61.75,-143.33C73.5,-145.83 87.23,-148.66 99.69,-151 199.16,-169.7 318.35,-187.11 369.87,-194.4"/>
</g>
<!-- VH -->
<g id="node10" class="node">
<title>VH</title>
<ellipse fill="none" stroke="#fdae6b" cx="126.69" cy="-91" rx="27" ry="18"/>
<text text-anchor="middle" x="126.69" y="-87.3" font-family="Times-Roman" font-size="14.00" fill="#fee6ce">VH</text>
</g>
<!-- start&#45;&#45;VH -->
<g id="edge13" class="edge">
<title>start&#45;&#45;VH</title>
<path fill="none" stroke="#fdae6b" d="M56.28,-125.39C71.1,-118.05 90.12,-108.63 104.5,-101.5"/>
</g>
<!-- jz -->
<g id="node3" class="node">
<title>jz</title>
<ellipse fill="none" stroke="#fdae6b" cx="306.69" cy="-114" rx="27" ry="18"/>
<text text-anchor="middle" x="306.69" y="-110.3" font-family="Times-Roman" font-size="14.00" fill="#fee6ce">jz</text>
</g>
<!-- qs&#45;&#45;jz -->
<g id="edge2" class="edge">
<title>qs&#45;&#45;jz</title>
<path fill="none" stroke="#fdae6b" d="M242.21,-130.59C254.41,-127.4 269.13,-123.56 281.31,-120.37"/>
</g>
<!-- qs&#45;&#45;lm -->
<g id="edge9" class="edge">
<title>qs&#45;&#45;lm</title>
<path fill="none" stroke="#fdae6b" d="M240.96,-144.97C275.08,-156.67 338.3,-178.33 372.42,-190.02"/>
</g>
<!-- jz&#45;&#45;lm -->
<g id="edge12" class="edge">
<title>jz&#45;&#45;lm</title>
<path fill="none" stroke="#fdae6b" d="M323.02,-128.63C339.17,-144.05 364.46,-168.18 380.54,-183.54"/>
</g>
<!-- dr -->
<g id="node7" class="node">
<title>dr</title>
<ellipse fill="none" stroke="#fdae6b" cx="576.69" cy="-112" rx="27" ry="18"/>
<text text-anchor="middle" x="576.69" y="-108.3" font-family="Times-Roman" font-size="14.00" fill="#fee6ce">dr</text>
</g>
<!-- jz&#45;&#45;dr -->
<g id="edge20" class="edge">
<title>jz&#45;&#45;dr</title>
<path fill="none" stroke="#fdae6b" d="M333.88,-113.8C385.11,-113.42 498.08,-112.58 549.4,-112.2"/>
</g>
<!-- QV -->
<g id="node6" class="node">
<title>QV</title>
<ellipse fill="none" stroke="#fdae6b" cx="486.69" cy="-198" rx="27" ry="18"/>
<text text-anchor="middle" x="486.69" y="-194.3" font-family="Times-Roman" font-size="14.00" fill="#fee6ce">QV</text>
</g>
<!-- lm&#45;&#45;QV -->
<g id="edge19" class="edge">
<title>lm&#45;&#45;QV</title>
<path fill="none" stroke="#fdae6b" d="M424.1,-198C435.34,-198 448.41,-198 459.61,-198"/>
</g>
<!-- lm&#45;&#45;dr -->
<g id="edge16" class="edge">
<title>lm&#45;&#45;dr</title>
<path fill="none" stroke="#fdae6b" d="M419.17,-187.63C453.47,-171.05 520.25,-138.79 554.42,-122.28"/>
</g>
<!-- qb -->
<g id="node5" class="node">
<title>qb</title>
<ellipse fill="none" stroke="#fdae6b" cx="756.69" cy="-204" rx="27" ry="18"/>
<text text-anchor="middle" x="756.69" y="-200.3" font-family="Times-Roman" font-size="14.00" fill="#fee6ce">qb</text>
</g>
<!-- qb&#45;&#45;QV -->
<g id="edge4" class="edge">
<title>qb&#45;&#45;QV</title>
<path fill="none" stroke="#fdae6b" d="M729.4,-203.41C678.08,-202.26 565.11,-199.73 513.88,-198.59"/>
</g>
<!-- end -->
<g id="node8" class="node">
<title>end</title>
<ellipse fill="none" stroke="#fdae6b" cx="847.64" cy="-154" rx="27.9" ry="18"/>
<text text-anchor="middle" x="847.64" y="-150.3" font-family="Times-Roman" font-size="14.00" fill="#fee6ce">end</text>
</g>
<!-- qb&#45;&#45;end -->
<g id="edge10" class="edge">
<title>qb&#45;&#45;end</title>
<path fill="none" stroke="#fdae6b" d="M777.88,-192.65C792.23,-184.59 811.45,-173.78 825.92,-165.65"/>
</g>
<!-- HE -->
<g id="node12" class="node">
<title>HE</title>
<ellipse fill="none" stroke="#fdae6b" cx="847.64" cy="-208" rx="27" ry="18"/>
<text text-anchor="middle" x="847.64" y="-204.3" font-family="Times-Roman" font-size="14.00" fill="#fee6ce">HE</text>
</g>
<!-- qb&#45;&#45;HE -->
<g id="edge24" class="edge">
<title>qb&#45;&#45;HE</title>
<path fill="none" stroke="#fdae6b" d="M783.9,-205.18C795.48,-205.7 809.06,-206.31 820.62,-206.83"/>
</g>
<!-- QV&#45;&#45;jz -->
<g id="edge14" class="edge">
<title>QV&#45;&#45;jz</title>
<path fill="none" stroke="#fdae6b" d="M464.15,-187.83C429.89,-171.66 363.38,-140.28 329.17,-124.13"/>
</g>
<!-- QV&#45;&#45;dr -->
<g id="edge5" class="edge">
<title>QV&#45;&#45;dr</title>
<path fill="none" stroke="#fdae6b" d="M502.62,-183.41C518.8,-167.6 544.48,-142.5 560.69,-126.66"/>
</g>
<!-- QV&#45;&#45;end -->
<g id="edge6" class="edge">
<title>QV&#45;&#45;end</title>
<path fill="none" stroke="#fdae6b" d="M513.51,-194.84C579.42,-186.76 753.39,-165.43 820.09,-157.25"/>
</g>
<!-- ni -->
<g id="node9" class="node">
<title>ni</title>
<ellipse fill="none" stroke="#fdae6b" cx="666.69" cy="-58" rx="27" ry="18"/>
<text text-anchor="middle" x="666.69" y="-54.3" font-family="Times-Roman" font-size="14.00" fill="#fee6ce">ni</text>
</g>
<!-- dr&#45;&#45;ni -->
<g id="edge17" class="edge">
<title>dr&#45;&#45;ni</title>
<path fill="none" stroke="#fdae6b" d="M597.22,-100.02C611.81,-91.07 631.65,-78.89 646.22,-69.95"/>
</g>
<!-- fu -->
<g id="node11" class="node">
<title>fu</title>
<ellipse fill="none" stroke="#fdae6b" cx="666.69" cy="-112" rx="27" ry="18"/>
<text text-anchor="middle" x="666.69" y="-108.3" font-family="Times-Roman" font-size="14.00" fill="#fee6ce">fu</text>
</g>
<!-- dr&#45;&#45;fu -->
<g id="edge11" class="edge">
<title>dr&#45;&#45;fu</title>
<path fill="none" stroke="#fdae6b" d="M604.1,-112C615.34,-112 628.41,-112 639.61,-112"/>
</g>
<!-- ni&#45;&#45;jz -->
<g id="edge18" class="edge">
<title>ni&#45;&#45;jz</title>
<path fill="none" stroke="#fdae6b" d="M640.13,-62C574.19,-72.31 398.97,-99.72 333.15,-110.02"/>
</g>
<!-- ni&#45;&#45;qb -->
<g id="edge7" class="edge">
<title>ni&#45;&#45;qb</title>
<path fill="none" stroke="#fdae6b" d="M683.08,-72.46C686.79,-76.34 690.58,-80.67 693.69,-85 717.77,-118.48 738.19,-162.55 748.5,-186.56"/>
</g>
<!-- ni&#45;&#45;end -->
<g id="edge21" class="edge">
<title>ni&#45;&#45;end</title>
<path fill="none" stroke="#fdae6b" d="M688.22,-69.01C722.46,-87.38 790.89,-124.09 825.52,-142.67"/>
</g>
<!-- VH&#45;&#45;qs -->
<g id="edge15" class="edge">
<title>VH&#45;&#45;qs</title>
<path fill="none" stroke="#fdae6b" d="M148.55,-101.9C162.58,-109.23 180.99,-118.86 194.99,-126.18"/>
</g>
<!-- VH&#45;&#45;jz -->
<g id="edge8" class="edge">
<title>VH&#45;&#45;jz</title>
<path fill="none" stroke="#fdae6b" d="M153.58,-94.34C187.42,-98.72 246.35,-106.33 280.07,-110.69"/>
</g>
<!-- VH&#45;&#45;dr -->
<g id="edge22" class="edge">
<title>VH&#45;&#45;dr</title>
<path fill="none" stroke="#fdae6b" d="M153.78,-90.1C184.05,-89.11 235.48,-87.58 279.69,-87 303.69,-86.68 309.73,-85.77 333.69,-87 412.78,-91.07 505.84,-102.59 549.97,-108.46"/>
</g>
<!-- VH&#45;&#45;ni -->
<g id="edge23" class="edge">
<title>VH&#45;&#45;ni</title>
<path fill="none" stroke="#fdae6b" d="M143.47,-76.38C172.95,-50.66 239.4,0 305.69,0 305.69,0 305.69,0 487.69,0 547.34,0 612.93,-29.8 645.3,-46.68"/>
</g>
</g>
</svg>
